<svg aria-hidden="true" style="position: absolute; width: 0; height: 0; overflow: hidden;" version="1.1" xmlns="http://www.w3.org/2000/svg" xmlns:xlink="http://www.w3.org/1999/xlink">
<defs>
<symbol id="icon-link" viewBox="0 0 24 24">
<path d="M15 8h3c1.105 0 2.103 0.447 2.828 1.172s1.172 1.723 1.172 2.828-0.447 2.103-1.172 2.828-1.723 1.172-2.828 1.172h-3c-0.552 0-1 0.448-1 1s0.448 1 1 1h3c1.657 0 3.158-0.673 4.243-1.757s1.757-2.586 1.757-4.243-0.673-3.158-1.757-4.243-2.586-1.757-4.243-1.757h-3c-0.552 0-1 0.448-1 1s0.448 1 1 1zM9 16h-3c-1.105 0-2.103-0.447-2.828-1.172s-1.172-1.723-1.172-2.828 0.447-2.103 1.172-2.828 1.723-1.172 2.828-1.172h3c0.552 0 1-0.448 1-1s-0.448-1-1-1h-3c-1.657 0-3.158 0.673-4.243 1.757s-1.757 2.586-1.757 4.243 0.673 3.158 1.757 4.243 2.586 1.757 4.243 1.757h3c0.552 0 1-0.448 1-1s-0.448-1-1-1zM8 13h8c0.552 0 1-0.448 1-1s-0.448-1-1-1h-8c-0.552 0-1 0.448-1 1s0.448 1 1 1z"></path>
</symbol>
<symbol id="icon-infinity" viewBox="0 0 24 24">
<path d="M16.434 8.596c1.152 0 2.237 0.449 3.053 1.264 0.815 0.816 1.266 1.9 1.266 3.056s-0.45 2.239-1.268 3.056c-0.813 0.815-1.898 1.266-3.053 1.266s-2.238-0.449-3.055-1.266l-1.376-1.32-1.395 1.338c-0.797 0.799-1.882 1.248-3.036 1.248s-2.239-0.449-3.054-1.267c-0.815-0.813-1.265-1.899-1.265-3.053s0.45-2.237 1.267-3.056c0.814-0.813 1.898-1.266 3.053-1.266 1.154 0 2.239 0.449 3.055 1.266l1.375 1.32 1.396-1.34c0.798-0.797 1.882-1.246 3.037-1.246zM16.434 6.596c-1.679 0-3.25 0.645-4.433 1.813-1.163-1.159-2.746-1.813-4.43-1.813-1.688 0-3.274 0.657-4.467 1.853-1.194 1.192-1.852 2.78-1.852 4.469s0.658 3.274 1.852 4.468c1.191 1.192 2.779 1.852 4.468 1.852 1.679 0 3.251-0.645 4.431-1.814 1.163 1.16 2.746 1.814 4.431 1.814 1.689 0 3.276-0.658 4.469-1.854 1.193-1.188 1.852-2.776 1.852-4.467 0-1.688-0.658-3.274-1.852-4.47-1.197-1.195-2.783-1.851-4.469-1.851z"></path>
<path d="M7.571 12.096c0.225 0 0.426 0.088 0.612 0.271l0.57 0.548-0.603 0.579c-0.141 0.142-0.352 0.223-0.578 0.223-0.227 0-0.438-0.080-0.58-0.223-0.155-0.155-0.24-0.36-0.24-0.578 0-0.221 0.084-0.422 0.243-0.581 0.156-0.155 0.355-0.239 0.576-0.239zM7.571 11.096c-0.486 0-0.942 0.189-1.285 0.533-0.345 0.346-0.535 0.801-0.535 1.287 0 0.484 0.189 0.941 0.533 1.285s0.815 0.516 1.287 0.516c0.471 0 0.942-0.172 1.285-0.516l1.339-1.285-1.321-1.27c-0.36-0.361-0.817-0.55-1.303-0.55z"></path>
<path d="M16.434 12.113c0.228 0 0.438 0.080 0.576 0.219 0.158 0.159 0.242 0.359 0.242 0.582s-0.083 0.422-0.243 0.581c-0.144 0.146-0.352 0.228-0.571 0.228-0.23 0-0.444-0.088-0.617-0.261l-0.571-0.548 0.603-0.578c0.141-0.143 0.353-0.223 0.581-0.223zM16.434 11.113c-0.472 0-0.943 0.172-1.287 0.516l-1.34 1.285 1.322 1.27c0.362 0.361 0.838 0.539 1.311 0.539s0.937-0.177 1.279-0.521c0.346-0.344 0.534-0.801 0.534-1.287s-0.188-0.941-0.532-1.287c-0.346-0.344-0.817-0.515-1.287-0.515z"></path>
</symbol>
<symbol id="icon-rocket" viewBox="0 0 32 32">
<path d="M23.371 29.529c0 0 0.335-2.012-1.731-4.469 2.011-5.641 2.29-10.778 2.29-10.778s4.133 0.95 4.133 5.026c-0.001 6.981-4.692 10.221-4.692 10.221zM11.979 27.078c0 0-2.768-8.883-2.768-12.568 0-1.658 0.187-3.133 0.478-4.472h12.61c0.293 1.34 0.481 2.816 0.481 4.473 0 3.629-2.76 12.567-2.76 12.567h-8.041zM15.99 12.069c-1.418 0-2.568 1.15-2.568 2.569 0 1.418 1.15 2.569 2.568 2.569s2.569-1.15 2.569-2.569c0.001-1.419-1.15-2.569-2.569-2.569zM15.438 0.596v-3.498h1v3.409c1.143 0.832 4.236 3.478 5.635 8.575h-12.16c1.352-4.957 4.296-7.574 5.525-8.486zM8.629 29.529c0 0-4.691-3.24-4.691-10.221 0-4.076 4.133-5.026 4.133-5.026s0.279 5.137 2.289 10.778c-2.067 2.458-1.731 4.469-1.731 4.469zM17.691 30.045l-0.838-0.838-0.893 2.793-1.062-2.793-0.726 1.451-1.062-2.625h5.752l-1.171 2.012z"></path>
</symbol>
</defs>
</svg>
